<?xml version="1.0" encoding="UTF-8"?>
<svg xmlns="http://www.w3.org/2000/svg" xmlns:xlink="http://www.w3.org/1999/xlink" id="Layer_1" viewBox="0 0 1417.32 311.33" width="219" height="48">
  <defs>
    <style>
      .cls-1 {
        fill: #003e73;
      }
    </style>
  </defs>
  <g>
    <g>
      <path class="cls-1" d="M1150.05,117.66H463.11l-39.65,149.16h-35.55l39.65-149.16h-54.56l8.06-30.45h777.05l-8.06,30.45Z"/>
      <path class="cls-1" d="M506.98,155.66h-32.5l6.54-24.74h32.5l-6.54,24.74ZM471.21,168.03h32.5l-26.14,98.77h-32.5l26.14-98.77Z"/>
      <path class="cls-1" d="M519,168.03h30.97l-3.02,11.42h.39c8.78-9.32,19.64-14.28,31.1-14.28,31.16,0,37.3,26.64,29.94,54.43-6.8,25.7-27,50.05-55.1,50.05-12.23,0-20.39-4.57-24.71-13.51h-.38l-11.58,43.76h-32.5l34.9-131.87ZM537.56,216.38c-4.58,17.32-2.58,28.54,12.14,28.54s23.48-15.03,27.05-28.54c3.32-12.56,2.03-26.45-12.31-26.45-8.79,0-21.48,6.09-26.88,26.45Z"/>
      <path class="cls-1" d="M631.79,168.03h30.97l-3.02,11.42h.39c8.77-9.32,19.64-14.28,31.1-14.28,31.16,0,37.29,26.64,29.94,54.43-6.8,25.7-27,50.05-55.1,50.05-12.23,0-20.39-4.57-24.72-13.51h-.38l-11.58,43.76h-32.5l34.91-131.87ZM650.35,216.38c-4.58,17.32-2.58,28.54,12.14,28.54s23.47-15.03,27.05-28.54c3.32-12.56,2.04-26.45-12.31-26.45-8.8,0-21.49,6.09-26.88,26.45Z"/>
      <path class="cls-1" d="M754.4,130.92h32.5l-18.53,70.04,38.34-32.92h37.65l-46.18,37.3,24.64,61.47h-39.19l-13.75-39.77-10.57,8.18-8.35,31.59h-32.5l35.95-135.88Z"/>
      <path class="cls-1" d="M858.57,225.32c-3,13.51,2.46,22.46,16.22,22.46,7.84,0,16.44-3.61,21.41-10.85h30.4c-11.98,22.84-35.81,32.73-57.99,32.73-32.3,0-49.15-19.41-40.38-52.52,8.01-30.26,38.01-51.96,67.26-51.96,35.55,0,46.28,26.64,35.89,60.14h-72.83ZM903.68,207.24c2.35-11.04-3.07-20.17-13.96-20.17-11.47,0-21.29,8.18-26.36,20.17h40.32Z"/>
      <path class="cls-1" d="M955.16,168.03h31.54l-3.57,13.51h.38c8.55-9.9,20.76-16.36,32.82-16.36s22.45,4,24.63,15.98c10.61-10.46,21.81-15.98,35.2-15.98,31.52,0,28.68,23.79,23.69,42.62l-15.61,59h-32.5l15.36-58.04c2.82-10.65-.68-16.94-9.09-16.94-13.95,0-18.11,10.65-22.34,26.64l-12.8,48.34h-32.5l14.86-56.14c3.06-11.61,1.54-18.84-7.26-18.84-11.66,0-18.38,6.66-23.72,26.84l-12.74,48.14h-32.5l26.14-98.77Z"/>
      <path class="cls-1" d="M1124.54,168.03h30.97l-3.02,11.42h.38c8.77-9.32,19.64-14.28,31.1-14.28,31.16,0,37.3,26.64,29.95,54.43-6.8,25.7-27.01,50.05-55.1,50.05-12.23,0-20.39-4.57-24.72-13.51h-.38l-11.58,43.76h-32.5l34.91-131.87ZM1143.1,216.38c-4.58,17.32-2.59,28.54,12.14,28.54s23.47-15.03,27.04-28.54c3.32-12.56,2.04-26.45-12.31-26.45-8.78,0-21.47,6.09-26.87,26.45Z"/>
      <path class="cls-1" d="M1249.9,225.32c-3.01,13.51,2.46,22.46,16.22,22.46,7.83,0,16.43-3.61,21.4-10.85h30.4c-11.98,22.84-35.81,32.73-57.98,32.73-32.3,0-49.15-19.41-40.38-52.52,8.01-30.26,38.02-51.96,67.27-51.96,35.55,0,46.28,26.64,35.88,60.14h-72.83ZM1295.01,207.24c2.36-11.04-3.07-20.17-13.96-20.17-11.47,0-21.28,8.18-26.37,20.17h40.33Z"/>
      <path class="cls-1" d="M1347.63,168.03h31.54l-4.58,17.32h.39c8.1-12.56,20.95-19.22,34.9-19.22,2.48,0,5.11.19,7.44.76l-7.8,29.5c-3.9-1.14-7.52-1.91-11.92-1.91-16.05,0-27.39,11.04-30.66,23.41l-12.94,48.91h-32.5l26.13-98.77Z"/>
    </g>
    <path class="cls-1" d="M1180.5,90.96h8.97l-1.1,4.15c1.79-1.7,3.46-2.91,5.03-3.64,1.56-.72,3.33-1.09,5.3-1.09,2.66,0,4.54.8,5.62,2.41s1.18,4.09.29,7.46l-4.28,16.21h-9.67l3.7-14.03c.42-1.6.43-2.73.02-3.4s-1.14-.99-2.2-.99c-1.17,0-2.23.45-3.2,1.34s-1.75,2.5-2.36,4.83l-3.24,12.25h-9.63l6.74-25.5Z"/>
    <path class="cls-1" d="M1206.52,103.79c1.03-3.89,3.16-7.1,6.41-9.62,3.25-2.52,7.08-3.78,11.48-3.78,5.03,0,8.44,1.48,10.22,4.45,1.44,2.38,1.7,5.32.78,8.82-1.04,3.92-3.17,7.14-6.39,9.64-3.23,2.5-7.1,3.76-11.63,3.76-4.04,0-7.03-1.04-8.97-3.12-2.36-2.59-3-5.97-1.9-10.15ZM1216.18,103.76c-.61,2.27-.59,3.95.03,5.04s1.61,1.63,2.99,1.63,2.67-.54,3.84-1.61,2.07-2.79,2.7-5.16c.58-2.21.57-3.85-.04-4.93-.61-1.08-1.59-1.62-2.91-1.62-1.4,0-2.71.55-3.92,1.65-1.2,1.09-2.09,2.76-2.68,5Z"/>
    <path class="cls-1" d="M1241.78,90.96h9.02l-1.1,4.18c1.35-1.81,2.57-3.06,3.67-3.73,1.1-.69,2.33-1.02,3.68-1.02,1.42,0,2.86.45,4.3,1.34l-4.82,6.97c-1.01-.48-1.84-.72-2.51-.72-1.26,0-2.38.53-3.36,1.59-1.39,1.49-2.62,4.28-3.7,8.36l-2.26,8.55h-9.67l6.74-25.51Z"/>
    <path class="cls-1" d="M1254.9,109.38l9.8-.91c.09,1.15.42,1.98,1,2.47s1.45.74,2.65.74c1.29,0,2.37-.28,3.23-.84.66-.42,1.07-.93,1.24-1.56.19-.7-.03-1.25-.66-1.63-.45-.27-1.74-.61-3.87-1.01-3.18-.6-5.36-1.14-6.53-1.64-1.17-.51-2.04-1.36-2.62-2.55-.57-1.2-.66-2.57-.26-4.1.44-1.68,1.31-3.13,2.59-4.34,1.28-1.21,2.85-2.12,4.7-2.72,1.85-.6,4.19-.9,7.03-.9,3,0,5.15.23,6.45.69,1.3.47,2.31,1.18,3,2.16.7.97,1.14,2.29,1.33,3.96l-9.37.91c-.02-.81-.25-1.42-.71-1.8-.62-.52-1.47-.76-2.54-.76s-1.93.2-2.53.59-.97.86-1.12,1.43c-.16.63.02,1.09.57,1.41s1.84.61,3.89.86c3.11.37,5.35.88,6.74,1.54,1.39.66,2.33,1.59,2.84,2.81.51,1.21.57,2.55.19,4.01-.39,1.47-1.21,2.9-2.44,4.3-1.24,1.39-2.91,2.5-5.02,3.33-2.1.82-4.77,1.23-8.02,1.23-4.59,0-7.69-.67-9.28-2-1.61-1.35-2.37-3.24-2.27-5.69Z"/>
    <path class="cls-1" d="M1284.77,103.79c1.03-3.89,3.16-7.1,6.42-9.62,3.25-2.52,7.08-3.78,11.48-3.78,5.03,0,8.44,1.48,10.22,4.45,1.44,2.38,1.7,5.32.78,8.82-1.04,3.92-3.17,7.14-6.38,9.64-3.23,2.5-7.1,3.76-11.63,3.76-4.04,0-7.03-1.04-8.97-3.12-2.38-2.59-3.02-5.97-1.92-10.15ZM1294.43,103.76c-.6,2.27-.59,3.95.03,5.04s1.61,1.63,2.99,1.63,2.67-.54,3.84-1.61,2.07-2.79,2.7-5.16c.58-2.21.57-3.85-.04-4.93-.61-1.08-1.59-1.62-2.91-1.62-1.4,0-2.71.55-3.92,1.65-1.2,1.09-2.09,2.76-2.68,5Z"/>
    <path class="cls-1" d="M1319.93,90.96h8.97l-1.1,4.15c1.79-1.7,3.46-2.91,5.02-3.64,1.56-.72,3.33-1.09,5.3-1.09,2.66,0,4.54.8,5.62,2.41s1.18,4.09.29,7.46l-4.28,16.21h-9.67l3.7-14.03c.42-1.6.43-2.73.02-3.4s-1.14-.99-2.2-.99c-1.17,0-2.23.45-3.2,1.34s-1.75,2.5-2.36,4.83l-3.24,12.25h-9.63l6.75-25.5Z"/>
    <path class="cls-1" d="M1350.87,90.96h9.63l-6.73,25.51h-9.63l6.73-25.51ZM1353.44,81.25h9.63l-1.75,6.65h-9.63l1.75-6.65Z"/>
    <path class="cls-1" d="M1379.58,106.47l8.87,1.05c-1.01,1.94-2.28,3.61-3.82,5.03-1.52,1.42-3.29,2.52-5.28,3.31-1.99.78-4.37,1.18-7.13,1.18s-4.81-.25-6.46-.75-2.95-1.32-3.93-2.45c-.98-1.13-1.63-2.45-1.96-3.97s-.16-3.53.51-6.05c.7-2.62,1.71-4.81,3.06-6.55.99-1.28,2.17-2.42,3.56-3.45,1.39-1.01,2.74-1.77,4.05-2.26,2.08-.78,4.59-1.17,7.52-1.17,4.1,0,7.03.74,8.79,2.23s2.7,3.66,2.8,6.53l-9.38,1.22c0-1.09-.3-1.91-.9-2.46-.61-.56-1.54-.82-2.8-.82-1.6,0-3.04.58-4.32,1.74-1.29,1.16-2.25,2.92-2.86,5.26-.55,2.09-.48,3.68.21,4.78.69,1.08,1.79,1.63,3.3,1.63,1.26,0,2.41-.33,3.44-.98,1.02-.67,1.93-1.67,2.72-3.04Z"/>
  </g>
  <g id="logoMark">
    <g>
      <a xlink:href="77.28258">
        <polygon id="logoMark__x3C_PathItem_x3E_" class="cls-1" points="175.44 192.8 142.03 311.33 63.52 192.8 32.87 310.53 0 261.81 47.21 85.52 125.99 202.08 158.99 85.52 237.25 202.08 269.86 85.52 302.69 133.23 254.13 311.33 175.44 192.8"/>
      </a>
      <a xlink:href="77.28258">
        <circle id="logoMark__x3C_PathItem_x3E_-2" data-name="logoMark__x3C_PathItem_x3E_" class="cls-1" cx="308.6" cy="28.23" r="28.23"/>
      </a>
    </g>
  </g>
</svg>
