<svg xmlns="http://www.w3.org/2000/svg" viewBox="0 0 378.35 20.62"><g id="Ebene_2" data-name="Ebene 2"><g id="Ebene_2-2" data-name="Ebene 2"><path d="M33.35.05a18.52,18.52,0,0,1,9.5,2.32c2.64,1.55,4,3.41,4,5.6V20.6H39.66V8A3.12,3.12,0,0,0,37.8,5.33a8.71,8.71,0,0,0-4.45-1.08,8.78,8.78,0,0,0-4.49,1.08A3.12,3.12,0,0,0,27,8V20.6H19.85V8A3.13,3.13,0,0,0,18,5.33a8.82,8.82,0,0,0-4.5-1.08A8.78,8.78,0,0,0,9,5.33,3.12,3.12,0,0,0,7.15,8V20.6H0V8c0-2.19,1.32-4,4-5.6A18.6,18.6,0,0,1,13.5.05a18.44,18.44,0,0,1,9.93,2.54A18.26,18.26,0,0,1,33.35.05Z" style="fill:#f59b1a"/><path d="M155.55,0a26.59,26.59,0,0,1,8.85,1.39,16.58,16.58,0,0,1,6.35,3.72,7.12,7.12,0,0,1,2.37,5.19V20.6H155.6a26.64,26.64,0,0,1-8.83-1.39,16.65,16.65,0,0,1-6.38-3.73A7.17,7.17,0,0,1,138,10.3a7.09,7.09,0,0,1,2.37-5.16,16.66,16.66,0,0,1,6.35-3.72A26.48,26.48,0,0,1,155.55,0ZM166,16.41V10.33c0-1.7-1-3.14-3-4.33a16.09,16.09,0,0,0-14.71,0q-3,1.79-3,4.3t3.06,4.31a14.26,14.26,0,0,0,7.36,1.8Z" style="fill:#f59b1a"/><path d="M211.84.05a18.55,18.55,0,0,1,9.5,2.32c2.64,1.55,3.95,3.41,3.95,5.6V20.6h-7.15V8a3.13,3.13,0,0,0-1.85-2.64,8.71,8.71,0,0,0-4.45-1.08,8.82,8.82,0,0,0-4.5,1.08A3.13,3.13,0,0,0,205.49,8V20.6h-7.15V8a3.12,3.12,0,0,0-1.86-2.64,9.89,9.89,0,0,0-9,0A3.13,3.13,0,0,0,185.64,8V20.6h-7.15V8c0-2.19,1.32-4,3.95-5.6A18.64,18.64,0,0,1,192,.05a18.4,18.4,0,0,1,9.92,2.54A18.27,18.27,0,0,1,211.84.05Z" style="fill:#94999a"/><path d="M254.85,11.51V11l3.31-2L262,10.3a8.57,8.57,0,0,1-2.12,5.78,12.87,12.87,0,0,1-5.68,3.29,23.89,23.89,0,0,1-7.85,1.23,24,24,0,0,1-7.89-1.23,15.21,15.21,0,0,1-5.68-3.29,6.27,6.27,0,0,1-2.12-4.57V0h7.15V11.51c0,1.36.84,2.53,2.51,3.5a11.78,11.78,0,0,0,6,1.45,11.71,11.71,0,0,0,6-1.45C254,14,254.85,12.87,254.85,11.51Z" style="fill:#94999a"/><path d="M270.54.05a23.53,23.53,0,0,1,7.84,1.25,15,15,0,0,1,5.68,3.33,6.35,6.35,0,0,1,2.13,4.62V20.6H279V9.25q0-2.07-2.5-3.54a13.12,13.12,0,0,0-12,0Q262,7.18,262,9.25V10.3l-7.15,1.21V9.25A6.34,6.34,0,0,1,257,4.63a15.12,15.12,0,0,1,5.68-3.33A23.74,23.74,0,0,1,270.54.05Z" style="fill:#94999a"/><path d="M367.76,8.2A14.47,14.47,0,0,1,375.24,10c2.08,1.21,3.11,2.67,3.11,4.39s-1,3.15-3.11,4.36a14.57,14.57,0,0,1-7.48,1.82H344.91V16.41h22.85a4.75,4.75,0,0,0,2.43-.59,1.67,1.67,0,0,0,1-1.4,1.69,1.69,0,0,0-1-1.43,4.66,4.66,0,0,0-2.43-.59H354a14.49,14.49,0,0,1-7.44-1.81q-3.1-1.81-3.11-4.38t3.11-4.37A14.49,14.49,0,0,1,354,0h22.89V4.22H354a4.68,4.68,0,0,0-2.39.58,1.65,1.65,0,0,0-1,1.41,1.68,1.68,0,0,0,1,1.42A4.78,4.78,0,0,0,354,8.2h13.73Z" style="fill:#94999a"/><path d="M102.86,0A26.85,26.85,0,0,0,94,1.4a16.92,16.92,0,0,0-6.35,3.72,7.16,7.16,0,0,0-2.37,5.19V20.59h17.53a26.72,26.72,0,0,0,8.83-1.39A16.7,16.7,0,0,0,118,15.46a7.15,7.15,0,0,0,2.37-5.17A7.13,7.13,0,0,0,118,5.12a16.92,16.92,0,0,0-6.35-3.72A26.73,26.73,0,0,0,102.86,0ZM92.44,16.4V10.31c0-1.69,1-3.13,3-4.32a16.09,16.09,0,0,1,14.71,0q3,1.78,3,4.3c0,1.68-1,3.11-3.06,4.31a14.25,14.25,0,0,1-7.35,1.8Z" style="fill:#f59b1a"/><path d="M309.49,0a26.63,26.63,0,0,0-8.85,1.39,16.92,16.92,0,0,0-6.35,3.72,7.16,7.16,0,0,0-2.37,5.19V20.61h17.53a26.94,26.94,0,0,0,8.83-1.38,16.62,16.62,0,0,0,6.37-3.74A7.15,7.15,0,0,0,327,10.31a7.13,7.13,0,0,0-2.37-5.16,16.92,16.92,0,0,0-6.35-3.72A26.48,26.48,0,0,0,309.49,0ZM299.08,16.42V10.34c0-1.69,1-3.14,3-4.32a16,16,0,0,1,14.71,0c2,1.18,3,2.62,3,4.29s-1,3.12-3.07,4.32a14.35,14.35,0,0,1-7.35,1.79Z" style="fill:#94999a"/><path d="M132.66.05V20.59h-7.15V.05Z" style="fill:#f59b1a"/><path d="M338.12.06V20.6H331V.06Z" style="fill:#94999a"/><path d="M59.06,8.22H79.38V10.5H51.28a7.2,7.2,0,0,1,2.37-5.34A16.62,16.62,0,0,1,60,1.42,26.94,26.94,0,0,1,68.85,0H79.38V4.23H68.85a15,15,0,0,0-6,1.12A8,8,0,0,0,59.06,8.22Z" style="fill:#f59b1a"/><path d="M79.38,12.44H59.06a8.15,8.15,0,0,0,3.81,2.87,15.22,15.22,0,0,0,6,1.11H79.38v4.2H68.85A26.68,26.68,0,0,1,60,19.23a16.61,16.61,0,0,1-6.37-3.73,7.62,7.62,0,0,1-2.37-5.4h28.1Z" style="fill:#f59b1a"/></g></g></svg>